<svg width="864" height="119" viewBox="0 0 864 119" fill="none" xmlns="http://www.w3.org/2000/svg">
<circle cx="432.5" cy="24.5" r="24" stroke="#25313C"/>
<path d="M417 22.6L426.582 34L448 15" stroke="#F64C72" stroke-width="3"/>
<circle cx="763.5" cy="24.5" r="24" stroke="#553D67"/>
<path d="M748 22.6L757.582 34L779 15" stroke="#F64C72" stroke-width="3"/>
<circle cx="101.5" cy="24.5" r="24" stroke="#25313C"/>
<path d="M86 22.6L95.5818 34L117 15" stroke="#F64C72" stroke-width="3"/>
<line y1="22.5" x2="77" y2="22.5" stroke="#553D67"/>
<line x1="125" y1="22.5" x2="408" y2="22.5" stroke="#553D67"/>
<line x1="456" y1="22.5" x2="739" y2="22.5" stroke="#553D67"/>
<line x1="787" y1="22.5" x2="864" y2="22.5" stroke="#553D67"/>
<path d="M89.9814 80H88.5049L85.9121 71.3955C85.7891 71.0146 85.6514 70.5342 85.499 69.9541C85.3467 69.374 85.2676 69.0254 85.2617 68.9082C85.1328 69.6816 84.9277 70.5283 84.6465 71.4482L82.1328 80H80.6562L77.2373 67.1504H78.8193L80.8496 75.0869C81.1309 76.2002 81.3359 77.208 81.4648 78.1104C81.623 77.0381 81.8574 75.9893 82.168 74.9639L84.4707 67.1504H86.0527L88.4697 75.0342C88.751 75.9424 88.9883 76.9678 89.1816 78.1104C89.293 77.2783 89.5039 76.2646 89.8145 75.0693L91.8359 67.1504H93.418L89.9814 80ZM102.594 80H95.4307V67.1504H102.594V68.4775H96.9248V72.6172H102.251V73.9355H96.9248V78.6641H102.594V80ZM118.203 80L116.604 75.9131H111.453L109.871 80H108.359L113.439 67.0977H114.696L119.75 80H118.203ZM116.138 74.5684L114.644 70.5869C114.45 70.083 114.251 69.4648 114.046 68.7324C113.917 69.2949 113.732 69.9131 113.492 70.5869L111.98 74.5684H116.138ZM123.011 74.6562V80H121.517V67.1504H125.041C126.617 67.1504 127.78 67.4521 128.53 68.0557C129.286 68.6592 129.664 69.5674 129.664 70.7803C129.664 72.4795 128.803 73.6279 127.08 74.2256L130.569 80H128.803L125.691 74.6562H123.011ZM123.011 73.373H125.059C126.113 73.373 126.887 73.165 127.379 72.749C127.871 72.3271 128.117 71.6973 128.117 70.8594C128.117 70.0098 127.865 69.3975 127.361 69.0225C126.863 68.6475 126.061 68.46 124.953 68.46H123.011V73.373ZM139.807 80H132.644V67.1504H139.807V68.4775H134.138V72.6172H139.464V73.9355H134.138V78.6641H139.807V80ZM86.9141 99.8945C86.9141 101.195 86.4688 102.197 85.5781 102.9C84.6934 103.598 83.4248 103.946 81.7725 103.946H80.2607V109H78.7666V96.1504H82.0977C85.3086 96.1504 86.9141 97.3984 86.9141 99.8945ZM80.2607 102.663H81.6055C82.9297 102.663 83.8877 102.449 84.4795 102.021C85.0713 101.594 85.3672 100.908 85.3672 99.9648C85.3672 99.1152 85.0889 98.4824 84.5322 98.0664C83.9756 97.6504 83.1084 97.4424 81.9307 97.4424H80.2607V102.663ZM97.6895 109L96.0898 104.913H90.9395L89.3574 109H87.8457L92.9258 96.0977H94.1826L99.2363 109H97.6895ZM95.624 103.568L94.1299 99.5869C93.9365 99.083 93.7373 98.4648 93.5322 97.7324C93.4033 98.2949 93.2188 98.9131 92.9785 99.5869L91.4668 103.568H95.624ZM108.254 105.581C108.254 106.712 107.844 107.594 107.023 108.227C106.203 108.859 105.09 109.176 103.684 109.176C102.16 109.176 100.988 108.979 100.168 108.587V107.146C100.695 107.368 101.27 107.544 101.891 107.673C102.512 107.802 103.127 107.866 103.736 107.866C104.732 107.866 105.482 107.679 105.986 107.304C106.49 106.923 106.742 106.396 106.742 105.722C106.742 105.276 106.651 104.913 106.47 104.632C106.294 104.345 105.995 104.081 105.573 103.841C105.157 103.601 104.521 103.328 103.666 103.023C102.471 102.596 101.615 102.089 101.1 101.503C100.59 100.917 100.335 100.152 100.335 99.209C100.335 98.2188 100.707 97.4307 101.451 96.8447C102.195 96.2588 103.18 95.9658 104.404 95.9658C105.682 95.9658 106.856 96.2002 107.929 96.6689L107.463 97.9697C106.402 97.5244 105.371 97.3018 104.369 97.3018C103.578 97.3018 102.96 97.4717 102.515 97.8115C102.069 98.1514 101.847 98.623 101.847 99.2266C101.847 99.6719 101.929 100.038 102.093 100.325C102.257 100.606 102.532 100.867 102.919 101.107C103.312 101.342 103.909 101.603 104.712 101.89C106.06 102.37 106.985 102.886 107.489 103.437C107.999 103.987 108.254 104.702 108.254 105.581ZM118.133 105.581C118.133 106.712 117.723 107.594 116.902 108.227C116.082 108.859 114.969 109.176 113.562 109.176C112.039 109.176 110.867 108.979 110.047 108.587V107.146C110.574 107.368 111.148 107.544 111.77 107.673C112.391 107.802 113.006 107.866 113.615 107.866C114.611 107.866 115.361 107.679 115.865 107.304C116.369 106.923 116.621 106.396 116.621 105.722C116.621 105.276 116.53 104.913 116.349 104.632C116.173 104.345 115.874 104.081 115.452 103.841C115.036 103.601 114.4 103.328 113.545 103.023C112.35 102.596 111.494 102.089 110.979 101.503C110.469 100.917 110.214 100.152 110.214 99.209C110.214 98.2188 110.586 97.4307 111.33 96.8447C112.074 96.2588 113.059 95.9658 114.283 95.9658C115.561 95.9658 116.735 96.2002 117.808 96.6689L117.342 97.9697C116.281 97.5244 115.25 97.3018 114.248 97.3018C113.457 97.3018 112.839 97.4717 112.394 97.8115C111.948 98.1514 111.726 98.623 111.726 99.2266C111.726 99.6719 111.808 100.038 111.972 100.325C112.136 100.606 112.411 100.867 112.798 101.107C113.19 101.342 113.788 101.603 114.591 101.89C115.938 102.37 116.864 102.886 117.368 103.437C117.878 103.987 118.133 104.702 118.133 105.581ZM120.761 109V96.1504H122.255V109H120.761ZM136.941 102.558C136.941 104.614 136.42 106.231 135.377 107.409C134.34 108.587 132.896 109.176 131.044 109.176C129.151 109.176 127.689 108.599 126.658 107.444C125.633 106.284 125.12 104.649 125.12 102.54C125.12 100.448 125.636 98.8281 126.667 97.6797C127.698 96.5254 129.163 95.9482 131.062 95.9482C132.907 95.9482 134.349 96.5342 135.386 97.7061C136.423 98.8779 136.941 100.495 136.941 102.558ZM126.702 102.558C126.702 104.298 127.071 105.619 127.81 106.521C128.554 107.418 129.632 107.866 131.044 107.866C132.468 107.866 133.543 107.418 134.27 106.521C134.996 105.625 135.359 104.304 135.359 102.558C135.359 100.829 134.996 99.5195 134.27 98.6289C133.549 97.7324 132.479 97.2842 131.062 97.2842C129.638 97.2842 128.554 97.7354 127.81 98.6377C127.071 99.5342 126.702 100.841 126.702 102.558ZM149.853 109H148.147L141.125 98.2158H141.055C141.148 99.4814 141.195 100.642 141.195 101.696V109H139.815V96.1504H141.503L148.508 106.891H148.578C148.566 106.732 148.54 106.226 148.499 105.37C148.458 104.509 148.443 103.894 148.455 103.524V96.1504H149.853V109ZM161.463 109L159.863 104.913H154.713L153.131 109H151.619L156.699 96.0977H157.956L163.01 109H161.463ZM159.397 103.568L157.903 99.5869C157.71 99.083 157.511 98.4648 157.306 97.7324C157.177 98.2949 156.992 98.9131 156.752 99.5869L155.24 103.568H159.397ZM168.731 109H167.237V97.4775H163.168V96.1504H172.801V97.4775H168.731V109ZM181.906 109H174.743V96.1504H181.906V97.4775H176.237V101.617H181.563V102.936H176.237V107.664H181.906V109Z" fill="#6D7D8B"/>
<path d="M417.522 80H416.028V73.9531H409.261V80H407.767V67.1504H409.261V72.6172H416.028V67.1504H417.522V80ZM432.209 73.5576C432.209 75.6143 431.688 77.2314 430.645 78.4092C429.607 79.5869 428.163 80.1758 426.312 80.1758C424.419 80.1758 422.957 79.5986 421.926 78.4443C420.9 77.2842 420.388 75.6494 420.388 73.54C420.388 71.4482 420.903 69.8281 421.935 68.6797C422.966 67.5254 424.431 66.9482 426.329 66.9482C428.175 66.9482 429.616 67.5342 430.653 68.7061C431.69 69.8779 432.209 71.4951 432.209 73.5576ZM421.97 73.5576C421.97 75.2979 422.339 76.6191 423.077 77.5215C423.821 78.418 424.899 78.8662 426.312 78.8662C427.735 78.8662 428.811 78.418 429.537 77.5215C430.264 76.625 430.627 75.3037 430.627 73.5576C430.627 71.8291 430.264 70.5195 429.537 69.6289C428.816 68.7324 427.747 68.2842 426.329 68.2842C424.905 68.2842 423.821 68.7354 423.077 69.6377C422.339 70.5342 421.97 71.8408 421.97 73.5576ZM445.12 80H443.415L436.393 69.2158H436.322C436.416 70.4814 436.463 71.6416 436.463 72.6963V80H435.083V67.1504H436.771L443.775 77.8906H443.846C443.834 77.7324 443.808 77.2256 443.767 76.3701C443.726 75.5088 443.711 74.8936 443.723 74.5244V67.1504H445.12V80ZM455.816 80H448.653V67.1504H455.816V68.4775H450.147V72.6172H455.474V73.9355H450.147V78.6641H455.816V80ZM465.924 76.5811C465.924 77.7119 465.514 78.5938 464.693 79.2266C463.873 79.8594 462.76 80.1758 461.354 80.1758C459.83 80.1758 458.658 79.9795 457.838 79.5869V78.1455C458.365 78.3682 458.939 78.5439 459.561 78.6729C460.182 78.8018 460.797 78.8662 461.406 78.8662C462.402 78.8662 463.152 78.6787 463.656 78.3037C464.16 77.9229 464.412 77.3955 464.412 76.7217C464.412 76.2764 464.321 75.9131 464.14 75.6318C463.964 75.3447 463.665 75.0811 463.243 74.8408C462.827 74.6006 462.191 74.3281 461.336 74.0234C460.141 73.5957 459.285 73.0889 458.77 72.5029C458.26 71.917 458.005 71.1523 458.005 70.209C458.005 69.2188 458.377 68.4307 459.121 67.8447C459.865 67.2588 460.85 66.9658 462.074 66.9658C463.352 66.9658 464.526 67.2002 465.599 67.6689L465.133 68.9697C464.072 68.5244 463.041 68.3018 462.039 68.3018C461.248 68.3018 460.63 68.4717 460.185 68.8115C459.739 69.1514 459.517 69.623 459.517 70.2266C459.517 70.6719 459.599 71.0381 459.763 71.3252C459.927 71.6064 460.202 71.8672 460.589 72.1074C460.981 72.3418 461.579 72.6025 462.382 72.8896C463.729 73.3701 464.655 73.8857 465.159 74.4365C465.669 74.9873 465.924 75.7021 465.924 76.5811ZM472.507 80H471.013V68.4775H466.943V67.1504H476.576V68.4775H472.507V80ZM418.023 102.452C418.023 104.573 417.446 106.196 416.292 107.321C415.144 108.44 413.488 109 411.326 109H407.767V96.1504H411.704C413.702 96.1504 415.255 96.7041 416.362 97.8115C417.47 98.9189 418.023 100.466 418.023 102.452ZM416.441 102.505C416.441 100.829 416.02 99.5664 415.176 98.7168C414.338 97.8672 413.09 97.4424 411.432 97.4424H409.261V107.708H411.08C412.861 107.708 414.2 107.271 415.097 106.398C415.993 105.52 416.441 104.222 416.441 102.505ZM428.061 109H420.897V96.1504H428.061V97.4775H422.392V101.617H427.718V102.936H422.392V107.664H428.061V109ZM439.064 99.8945C439.064 101.195 438.619 102.197 437.729 102.9C436.844 103.598 435.575 103.946 433.923 103.946H432.411V109H430.917V96.1504H434.248C437.459 96.1504 439.064 97.3984 439.064 99.8945ZM432.411 102.663H433.756C435.08 102.663 436.038 102.449 436.63 102.021C437.222 101.594 437.518 100.908 437.518 99.9648C437.518 99.1152 437.239 98.4824 436.683 98.0664C436.126 97.6504 435.259 97.4424 434.081 97.4424H432.411V102.663ZM448.926 109H441.763V96.1504H448.926V97.4775H443.257V101.617H448.583V102.936H443.257V107.664H448.926V109ZM461.819 109H460.114L453.092 98.2158H453.021C453.115 99.4814 453.162 100.642 453.162 101.696V109H451.782V96.1504H453.47L460.475 106.891H460.545C460.533 106.732 460.507 106.226 460.466 105.37C460.425 104.509 460.41 103.894 460.422 103.524V96.1504H461.819V109ZM475.609 102.452C475.609 104.573 475.032 106.196 473.878 107.321C472.729 108.44 471.074 109 468.912 109H465.353V96.1504H469.29C471.288 96.1504 472.841 96.7041 473.948 97.8115C475.056 98.9189 475.609 100.466 475.609 102.452ZM474.027 102.505C474.027 100.829 473.605 99.5664 472.762 98.7168C471.924 97.8672 470.676 97.4424 469.018 97.4424H466.847V107.708H468.666C470.447 107.708 471.786 107.271 472.683 106.398C473.579 105.52 474.027 104.222 474.027 102.505ZM486.561 109L484.961 104.913H479.811L478.229 109H476.717L481.797 96.0977H483.054L488.107 109H486.561ZM484.495 103.568L483.001 99.5869C482.808 99.083 482.608 98.4648 482.403 97.7324C482.274 98.2949 482.09 98.9131 481.85 99.5869L480.338 103.568H484.495ZM489.874 96.1504H493.504C495.209 96.1504 496.442 96.4053 497.204 96.915C497.966 97.4248 498.347 98.2305 498.347 99.332C498.347 100.094 498.133 100.724 497.705 101.222C497.283 101.714 496.665 102.033 495.851 102.18V102.268C497.802 102.602 498.777 103.627 498.777 105.344C498.777 106.492 498.388 107.389 497.608 108.033C496.835 108.678 495.751 109 494.356 109H489.874V96.1504ZM491.368 101.652H493.829C494.884 101.652 495.643 101.488 496.105 101.16C496.568 100.826 496.8 100.267 496.8 99.4814C496.8 98.7607 496.542 98.2422 496.026 97.9258C495.511 97.6035 494.69 97.4424 493.565 97.4424H491.368V101.652ZM491.368 102.918V107.726H494.049C495.086 107.726 495.865 107.526 496.387 107.128C496.914 106.724 497.178 106.094 497.178 105.238C497.178 104.441 496.908 103.855 496.369 103.48C495.836 103.105 495.021 102.918 493.926 102.918H491.368ZM501.546 109V96.1504H503.04V107.646H508.709V109H501.546ZM518.061 109H510.897V96.1504H518.061V97.4775H512.392V101.617H517.718V102.936H512.392V107.664H518.061V109Z" fill="#6D7D8B"/>
<path d="M744.844 82L743.244 77.9131H738.094L736.512 82H735L740.08 69.0977H741.337L746.391 82H744.844ZM742.778 76.5684L741.284 72.5869C741.091 72.083 740.892 71.4648 740.687 70.7324C740.558 71.2949 740.373 71.9131 740.133 72.5869L738.621 76.5684H742.778ZM748.157 82V69.1504H749.651V80.6465H755.32V82H748.157ZM768.724 82H767.247L764.654 73.3955C764.531 73.0146 764.394 72.5342 764.241 71.9541C764.089 71.374 764.01 71.0254 764.004 70.9082C763.875 71.6816 763.67 72.5283 763.389 73.4482L760.875 82H759.398L755.979 69.1504H757.562L759.592 77.0869C759.873 78.2002 760.078 79.208 760.207 80.1104C760.365 79.0381 760.6 77.9893 760.91 76.9639L763.213 69.1504H764.795L767.212 77.0342C767.493 77.9424 767.73 78.9678 767.924 80.1104C768.035 79.2783 768.246 78.2646 768.557 77.0693L770.578 69.1504H772.16L768.724 82ZM782.25 82L780.65 77.9131H775.5L773.918 82H772.406L777.486 69.0977H778.743L783.797 82H782.25ZM780.185 76.5684L778.69 72.5869C778.497 72.083 778.298 71.4648 778.093 70.7324C777.964 71.2949 777.779 71.9131 777.539 72.5869L776.027 76.5684H780.185ZM788.833 75.5752L792.261 69.1504H793.878L789.589 77.0166V82H788.077V77.0869L783.797 69.1504H785.432L788.833 75.5752ZM802.904 78.5811C802.904 79.7119 802.494 80.5938 801.674 81.2266C800.854 81.8594 799.74 82.1758 798.334 82.1758C796.811 82.1758 795.639 81.9795 794.818 81.5869V80.1455C795.346 80.3682 795.92 80.5439 796.541 80.6729C797.162 80.8018 797.777 80.8662 798.387 80.8662C799.383 80.8662 800.133 80.6787 800.637 80.3037C801.141 79.9229 801.393 79.3955 801.393 78.7217C801.393 78.2764 801.302 77.9131 801.12 77.6318C800.944 77.3447 800.646 77.0811 800.224 76.8408C799.808 76.6006 799.172 76.3281 798.316 76.0234C797.121 75.5957 796.266 75.0889 795.75 74.5029C795.24 73.917 794.985 73.1523 794.985 72.209C794.985 71.2188 795.357 70.4307 796.102 69.8447C796.846 69.2588 797.83 68.9658 799.055 68.9658C800.332 68.9658 801.507 69.2002 802.579 69.6689L802.113 70.9697C801.053 70.5244 800.021 70.3018 799.02 70.3018C798.229 70.3018 797.61 70.4717 797.165 70.8115C796.72 71.1514 796.497 71.623 796.497 72.2266C796.497 72.6719 796.579 73.0381 796.743 73.3252C796.907 73.6064 797.183 73.8672 797.569 74.1074C797.962 74.3418 798.56 74.6025 799.362 74.8896C800.71 75.3701 801.636 75.8857 802.14 76.4365C802.649 76.9873 802.904 77.7021 802.904 78.5811ZM736.767 111V98.1504H738.261V111H736.767ZM747.48 111L743.121 99.6094H743.051C743.133 100.512 743.174 101.584 743.174 102.826V111H741.794V98.1504H744.044L748.113 108.75H748.184L752.288 98.1504H754.521V111H753.026V102.721C753.026 101.771 753.067 100.74 753.149 99.627H753.079L748.685 111H747.48ZM766.201 101.895C766.201 103.195 765.756 104.197 764.865 104.9C763.98 105.598 762.712 105.946 761.06 105.946H759.548V111H758.054V98.1504H761.385C764.596 98.1504 766.201 99.3984 766.201 101.895ZM759.548 104.663H760.893C762.217 104.663 763.175 104.449 763.767 104.021C764.358 103.594 764.654 102.908 764.654 101.965C764.654 101.115 764.376 100.482 763.819 100.066C763.263 99.6504 762.396 99.4424 761.218 99.4424H759.548V104.663ZM770.394 105.656V111H768.899V98.1504H772.424C774 98.1504 775.163 98.4521 775.913 99.0557C776.669 99.6592 777.047 100.567 777.047 101.78C777.047 103.479 776.186 104.628 774.463 105.226L777.952 111H776.186L773.074 105.656H770.394ZM770.394 104.373H772.441C773.496 104.373 774.27 104.165 774.762 103.749C775.254 103.327 775.5 102.697 775.5 101.859C775.5 101.01 775.248 100.397 774.744 100.022C774.246 99.6475 773.443 99.46 772.336 99.46H770.394V104.373ZM791.18 104.558C791.18 106.614 790.658 108.231 789.615 109.409C788.578 110.587 787.134 111.176 785.282 111.176C783.39 111.176 781.928 110.599 780.896 109.444C779.871 108.284 779.358 106.649 779.358 104.54C779.358 102.448 779.874 100.828 780.905 99.6797C781.937 98.5254 783.401 97.9482 785.3 97.9482C787.146 97.9482 788.587 98.5342 789.624 99.7061C790.661 100.878 791.18 102.495 791.18 104.558ZM780.94 104.558C780.94 106.298 781.31 107.619 782.048 108.521C782.792 109.418 783.87 109.866 785.282 109.866C786.706 109.866 787.781 109.418 788.508 108.521C789.234 107.625 789.598 106.304 789.598 104.558C789.598 102.829 789.234 101.52 788.508 100.629C787.787 99.7324 786.718 99.2842 785.3 99.2842C783.876 99.2842 782.792 99.7354 782.048 100.638C781.31 101.534 780.94 102.841 780.94 104.558ZM801.393 98.1504H803.001L798.369 111H796.893L792.287 98.1504H793.869L796.822 106.465C797.162 107.42 797.432 108.349 797.631 109.251C797.842 108.302 798.117 107.355 798.457 106.412L801.393 98.1504ZM804.776 111V98.1504H806.271V111H804.776ZM819.841 111H818.136L811.113 100.216H811.043C811.137 101.481 811.184 102.642 811.184 103.696V111H809.804V98.1504H811.491L818.496 108.891H818.566C818.555 108.732 818.528 108.226 818.487 107.37C818.446 106.509 818.432 105.894 818.443 105.524V98.1504H819.841V111ZM829.025 104.268H833.394V110.517C832.714 110.733 832.022 110.897 831.319 111.009C830.616 111.12 829.802 111.176 828.876 111.176C826.931 111.176 825.416 110.599 824.332 109.444C823.248 108.284 822.706 106.661 822.706 104.575C822.706 103.239 822.973 102.07 823.506 101.068C824.045 100.061 824.818 99.293 825.826 98.7656C826.834 98.2324 828.015 97.9658 829.368 97.9658C830.739 97.9658 832.017 98.2178 833.2 98.7217L832.62 100.04C831.46 99.5479 830.344 99.3018 829.271 99.3018C827.707 99.3018 826.485 99.7676 825.606 100.699C824.728 101.631 824.288 102.923 824.288 104.575C824.288 106.31 824.71 107.625 825.554 108.521C826.403 109.418 827.648 109.866 829.289 109.866C830.18 109.866 831.05 109.764 831.899 109.559V105.604H829.025V104.268Z" fill="#6D7D8B"/>
</svg>
