<svg width="65" height="61" viewBox="0 0 65 61" fill="none" xmlns="http://www.w3.org/2000/svg">
<path d="M49.8147 6.52541C49.4054 6.00698 48.7657 5.69592 48.0749 5.69592H26.8728C25.9517 5.69592 25.1415 6.24626 24.8515 7.0598L21.3036 17.0296C20.9283 18.0665 21.5253 19.1991 22.6341 19.55C22.8558 19.6218 23.0946 19.6537 23.3249 19.6537H44.527C45.4481 19.6537 46.2583 19.1034 46.5483 18.2898L50.0962 8.31999C50.3179 7.71382 50.2071 7.04385 49.8147 6.52541ZM44.527 17.6597H23.3249L26.8728 7.68989H48.0749L44.527 17.6597Z" fill="#553D67"/>
<path d="M59.2215 4.65118L50.5564 28.9775C50.3688 29.5039 49.7632 29.7831 49.2003 29.6076C48.6375 29.4321 48.339 28.8658 48.5266 28.3394L57.2002 4.02109C57.3196 3.71801 57.2684 3.38302 57.0637 3.1278C56.8676 2.86459 56.5435 2.70508 56.2023 2.71305H20.1775C19.7169 2.71305 19.3076 2.98423 19.1626 3.391L3.53817 47.2581C3.41877 47.5612 3.46994 47.8962 3.67463 48.1514C3.87079 48.4066 4.19487 48.5662 4.53602 48.5662H41.0299C41.6184 48.5662 42.096 49.0128 42.096 49.5631C42.096 50.1135 41.6184 50.5601 41.0299 50.5601H5.47416C3.86226 50.7356 2.6512 52.0117 2.6512 53.5271V55.537C2.65972 57.188 4.084 58.52 5.84942 58.528H46.6588L47.469 56.2389C47.6567 55.7125 48.2622 55.4334 48.8251 55.6088C49.388 55.7843 49.6865 56.3506 49.4988 56.877L48.4413 59.844C48.2878 60.2508 47.8784 60.5219 47.4264 60.5299H5.84942C2.90705 60.5299 0.519043 58.2967 0.519043 55.545V53.5351C0.519043 52.0835 1.20133 50.7037 2.38681 49.7705C2.22476 49.6269 2.07978 49.4754 1.94332 49.3159C1.33779 48.5422 1.17575 47.5373 1.50836 46.628L17.1498 2.76091C17.5763 1.53263 18.8044 0.703141 20.1775 0.711117H56.2023C57.9678 0.711117 59.4006 2.05903 59.392 3.71003C59.392 4.02907 59.3323 4.3481 59.2215 4.65118Z" fill="#553D67"/>
<path d="M63.7503 13.72C63.196 13.5445 62.5904 13.8316 62.4028 14.35L56.0064 32.2957C55.8187 32.8221 56.1258 33.3804 56.6801 33.5559C57.243 33.7314 57.84 33.4442 58.0276 32.9258L64.4241 14.9801C64.6117 14.4617 64.3132 13.8954 63.7503 13.72Z" fill="#553D67"/>
<path d="M61.8488 39.7452L36.263 24.7904C35.8706 24.5591 35.3674 24.591 35.0178 24.8702C34.6596 25.1493 34.5316 25.6119 34.7107 26.0187L46.4376 52.9373C46.6082 53.3121 46.9919 53.5514 47.4269 53.5514C47.461 53.5514 47.4951 53.5514 47.5292 53.5434C47.9983 53.5036 48.3906 53.1766 48.4674 52.7379L50.4631 42.5208L61.3797 41.5956C61.9682 41.5398 62.4031 41.0532 62.3434 40.4949C62.3093 40.1839 62.1302 39.9047 61.8488 39.7452ZM49.4652 40.5906C48.9876 40.6305 48.6039 40.9655 48.5186 41.4042L47.0346 48.9972L37.926 28.1164L58.028 39.8568L49.4652 40.5906Z" fill="#553D67"/>
</svg>
