<svg width="65" height="65" viewBox="0 0 65 65" fill="none" xmlns="http://www.w3.org/2000/svg">
<path d="M32.5004 0.218018C14.8343 0.218018 0.518066 14.5627 0.518066 32.2639C0.518066 49.965 14.8343 64.3097 32.5004 64.3097C50.1664 64.3097 64.4826 49.965 64.4826 32.2639C64.4658 14.5712 50.1579 0.234884 32.5004 0.218018ZM32.5004 62.1761C16.0126 62.1761 2.64741 48.7843 2.64741 32.2639C2.64741 15.7434 16.0126 2.3516 32.5004 2.3516C48.9881 2.3516 62.3533 15.7434 62.3533 32.2639C62.328 48.7759 48.9796 62.1508 32.5004 62.1761Z" fill="#553D67"/>
<path d="M32.4999 5.55615C17.7797 5.55615 5.84521 17.5143 5.84521 32.2638C5.84521 47.0133 17.7797 58.9715 32.4999 58.9715C47.2202 58.9715 59.1547 47.0133 59.1547 32.2638C59.1378 17.5227 47.2118 5.57302 32.4999 5.55615ZM32.4999 56.8295C18.958 56.8295 7.98298 45.8327 7.98298 32.2638C7.98298 18.6949 18.958 7.69816 32.4999 7.69816C46.0419 7.69816 57.0169 18.6949 57.0169 32.2638C57.0085 45.8242 46.0335 56.821 32.4999 56.8295Z" fill="#553D67"/>
<path d="M33.5605 10.9028H31.4312V13.0363H33.5605V10.9028Z" fill="#553D67"/>
<path d="M33.5605 51.4912H31.4312V53.6248H33.5605V51.4912Z" fill="#553D67"/>
<path d="M22.7595 13.229L20.9155 14.296L21.9804 16.1437L23.8244 15.0767L22.7595 13.229Z" fill="#553D67"/>
<path d="M43.0105 48.3806L41.1665 49.4476L42.2314 51.2953L44.0754 50.2283L43.0105 48.3806Z" fill="#553D67"/>
<path d="M14.5652 20.6592L13.5005 22.5068L15.3445 23.5736L16.4092 21.726L14.5652 20.6592Z" fill="#553D67"/>
<path d="M49.6433 40.9587L48.5786 42.8065L50.4226 43.8734L51.4873 42.0256L49.6433 40.9587Z" fill="#553D67"/>
<path d="M13.3105 31.1929H11.1812V33.3265H13.3105V31.1929Z" fill="#553D67"/>
<path d="M53.8188 31.1929H51.6895V33.3265H53.8188V31.1929Z" fill="#553D67"/>
<path d="M15.3467 40.9573L13.5024 42.0238L14.5669 43.8716L16.4111 42.8051L15.3467 40.9573Z" fill="#553D67"/>
<path d="M50.4236 20.6582L48.5796 21.725L49.6443 23.5726L51.4883 22.5059L50.4236 20.6582Z" fill="#553D67"/>
<path d="M21.9726 48.3781L20.9077 50.2257L22.7517 51.2927L23.8166 49.445L21.9726 48.3781Z" fill="#553D67"/>
<path d="M42.2294 13.2318L41.1646 15.0795L43.0086 16.1465L44.0735 14.2988L42.2294 13.2318Z" fill="#553D67"/>
<path d="M31.4313 15.1699V31.6566L21.2896 37.7537L22.3837 39.5837L33.0473 33.1746C33.3671 32.9806 33.5607 32.6348 33.5607 32.2553V15.1699H31.4313Z" fill="#553D67"/>
</svg>
