<svg width="89" height="95" viewBox="0 0 89 95" fill="none" xmlns="http://www.w3.org/2000/svg">
<path d="M87.6337 62.4224L82.8708 61.1955C82.479 59.8422 81.9402 58.5268 81.2913 57.2746L83.8136 52.9237C84.1686 52.3039 84.0829 51.5198 83.5809 51.0138L78.8425 46.1191C78.3528 45.6131 77.5814 45.512 76.9937 45.8787L72.7817 48.4842C72.2308 48.1807 71.6798 47.9024 71.1043 47.6495C70.4064 47.3459 69.6963 47.0803 68.9861 46.8526L67.7985 41.9326C67.627 41.2369 67.0271 40.7437 66.3292 40.7437H59.6317C58.9338 40.7437 58.3339 41.2369 58.1624 41.9326L56.9748 46.8526C55.6647 47.2574 54.3913 47.8139 53.1791 48.4842L48.9672 45.8787C48.3673 45.512 47.6081 45.6005 47.1184 46.1191L42.38 51.0138C41.8902 51.5198 41.7922 52.3166 42.1473 52.9237L44.6696 57.2746C44.0207 58.5268 43.4942 59.8295 43.0901 61.1955L38.3272 62.4224C37.6538 62.5994 37.1763 63.2192 37.1763 63.9401V70.8586C37.1763 71.5795 37.6538 72.1993 38.3272 72.3764L43.0901 73.6032C43.4819 74.9565 44.0207 76.2719 44.6696 77.5241L42.1473 81.875C41.7922 82.4948 41.878 83.2789 42.38 83.7849L47.1184 88.6796C47.6081 89.1856 48.3795 89.2868 48.9672 88.92L53.1791 86.3145C54.3913 86.9848 55.6647 87.5287 56.9748 87.9461L58.1624 92.8661C58.3339 93.5618 58.9338 94.0551 59.6317 94.0551H66.3292C67.0271 94.0551 67.627 93.5618 67.7985 92.8661L68.9861 87.9461C70.2962 87.5413 71.5696 86.9848 72.7817 86.3145L76.9937 88.92C77.5936 89.2868 78.3528 89.1982 78.8425 88.6796L83.5809 83.7849C84.0707 83.2789 84.1686 82.4821 83.8136 81.875L81.2913 77.5241C81.9402 76.2719 82.4667 74.9565 82.8708 73.6032L87.6337 72.3764C88.3071 72.1993 88.7846 71.5795 88.7846 70.8586V63.9528C88.7724 63.2192 88.3071 62.5994 87.6337 62.4224ZM85.7481 69.6317L81.2791 70.7827C80.7403 70.9218 80.3118 71.3519 80.1771 71.921C79.7608 73.6159 79.1119 75.2474 78.2426 76.7526C77.961 77.2458 77.961 77.8656 78.2426 78.3589L80.6179 82.4315L77.5691 85.5935L73.6266 83.1398C73.1491 82.8489 72.5491 82.8489 72.0716 83.1398C70.6146 84.0378 69.0351 84.7082 67.3944 85.1382C66.8557 85.2773 66.4271 85.72 66.2924 86.2765L65.166 90.8804H60.8439L59.7297 86.2639C59.595 85.7074 59.1787 85.2647 58.6277 85.1256C56.987 84.6955 55.4075 84.0252 53.9505 83.1272C53.473 82.8363 52.873 82.8363 52.3955 83.1272L48.453 85.5809L45.392 82.4315L47.7673 78.3589C48.0489 77.8656 48.0489 77.2458 47.7673 76.7526C46.898 75.2474 46.2491 73.6159 45.8328 71.921C45.6981 71.3645 45.2695 70.9218 44.7308 70.7827L40.274 69.6191V65.1543L44.743 64.0034C45.2818 63.8642 45.7103 63.4342 45.845 62.865C46.2613 61.1702 46.9102 59.5386 47.7796 58.0335C48.0612 57.5402 48.0612 56.9205 47.7796 56.4272L45.4042 52.3545L48.453 49.1925L52.3955 51.6462C52.873 51.9372 53.473 51.9372 53.9505 51.6462C55.4075 50.7482 56.987 50.0779 58.6277 49.6479C59.1665 49.5087 59.595 49.066 59.7297 48.5095L60.8561 43.9057H65.1782L66.2924 48.5222C66.4271 49.0787 66.8434 49.5214 67.3944 49.6605C69.0351 50.0905 70.6146 50.7609 72.0716 51.6589C72.5491 51.9498 73.1491 51.9498 73.6266 51.6589L77.5691 49.2052L80.6301 52.3672L78.2548 56.4398C77.9732 56.9331 77.9732 57.5529 78.2548 58.0461C79.1241 59.5513 79.7731 61.1828 80.1894 62.8777C80.324 63.4342 80.7526 63.8769 81.2913 64.016L85.7481 65.1796V69.6317Z" fill="#553D67"/>
<path d="M62.9873 54.8594C56.2776 54.8594 50.8535 60.4751 50.8535 67.3935C50.8535 74.3119 56.2898 79.9276 62.9873 79.9276C69.6847 79.9276 75.121 74.3119 75.121 67.3935C75.121 60.4751 69.697 54.872 62.9873 54.8594ZM62.9873 76.8036C57.955 76.8036 53.89 72.5918 53.89 67.4062C53.89 62.2205 57.9673 58.0087 62.9873 58.0087C68.0195 58.0087 72.0845 62.2205 72.0845 67.4062C72.0968 72.5918 68.0195 76.7909 62.9873 76.8036Z" fill="#553D67"/>
<path d="M70.5781 18.8125H73.6146V43.8934H70.5781V18.8125Z" fill="#553D67"/>
<path d="M6.86061 79.9402V86.2136C6.86061 87.0737 7.53403 87.7819 8.37886 87.7819H40.2377V84.6452H9.88487V79.9402H28.0917C28.3243 79.9402 28.5569 79.8896 28.7651 79.7884L34.8381 76.6517C35.3523 76.3861 35.6829 75.8422 35.6829 75.2478C35.6829 74.6533 35.3523 74.1095 34.8381 73.8438L28.7651 70.7071C28.5569 70.5933 28.3243 70.5427 28.0917 70.5301H9.88487V17.2441H67.5418C70.8966 17.2441 73.6148 14.4362 73.6148 10.9707V7.84664C73.6148 6.98657 72.9413 6.27829 72.0965 6.27829H67.5418V9.41499H70.5783V10.9833C70.5783 12.7161 69.2192 14.12 67.5418 14.12C65.8643 14.12 64.5052 12.7161 64.5052 10.9833V6.27829C64.5052 4.54551 65.8643 3.14158 67.5418 3.14158H73.6148C75.2922 3.14158 76.6513 4.54551 76.6513 6.27829V42.3251H79.6878V6.27829C79.6878 2.81274 76.9696 0.00488281 73.6148 0.00488281H6.86061C3.50576 0.00488281 0.787598 2.81274 0.787598 6.27829V10.9833C0.787598 14.4489 3.50576 17.2567 6.86061 17.2567V70.5427H5.34236C2.8201 70.5301 0.787598 72.6423 0.787598 75.2351C0.787598 77.828 2.8201 79.9402 5.34236 79.9402H6.86061ZM3.8241 10.9707V6.27829C3.8241 4.54551 5.18319 3.14158 6.86061 3.14158H62.3258C61.7748 4.09018 61.4932 5.17791 61.481 6.27829V10.9833C61.481 12.0837 61.7748 13.1714 62.3258 14.12H6.86061C5.18319 14.1074 3.8241 12.7035 3.8241 10.9707ZM30.7731 75.2351L27.7366 76.8035H26.5734V73.6668H27.7366L30.7731 75.2351ZM3.8241 75.2351C3.8241 74.3751 4.49752 73.6668 5.34236 73.6668H23.5491V76.8035H5.34236C4.49752 76.8035 3.8241 76.0952 3.8241 75.2351Z" fill="#553D67"/>
<path d="M0.787598 23.5176H3.82407V54.8593H0.787598V23.5176Z" fill="#553D67"/>
<path d="M59.9624 25.0854V21.9487H40.2373C39.8333 21.9487 39.4537 22.1131 39.1598 22.404L36.3927 25.2625C29.7687 20.2412 20.5857 20.9748 14.7821 26.9826C14.1944 27.5897 14.1944 28.5889 14.7821 29.196L25.5078 40.2757C25.7894 40.5666 26.1812 40.731 26.5853 40.7436H41.7556C42.5882 40.7436 43.2738 40.048 43.2738 39.1753C43.2738 34.7611 41.6331 30.5241 38.6823 27.3241L40.874 25.0601H59.9624V25.0854ZM40.1516 37.6196H27.2097L18.0635 28.1715C22.7284 24.3139 29.279 24.0483 34.2255 27.5265L30.0748 31.8141L32.2175 34.0276L36.5519 29.5502C38.5599 31.7636 39.821 34.5967 40.1516 37.6196Z" fill="#553D67"/>
<path d="M62.9868 21.9492H66.0233V25.0861H62.9868V21.9492Z" fill="#553D67"/>
<path d="M17.4761 45.4487H20.5125V48.5854H17.4761V45.4487Z" fill="#553D67"/>
<path d="M23.5488 45.4487H38.7191V48.5854H23.5488V45.4487Z" fill="#553D67"/>
<path d="M14.4399 51.7222H38.7197V54.8588H14.4399V51.7222Z" fill="#553D67"/>
<path d="M47.8164 28.2095H50.8529V31.3461H47.8164V28.2095Z" fill="#553D67"/>
<path d="M53.8892 28.2095H66.023V31.3461H53.8892V28.2095Z" fill="#553D67"/>
<path d="M47.8164 34.4829H66.0232V37.6195H47.8164V34.4829Z" fill="#553D67"/>
<path d="M14.4399 57.9956H34.165V61.1322H14.4399V57.9956Z" fill="#553D67"/>
</svg>
