<svg width="87" height="64" viewBox="0 0 87 64" fill="none" xmlns="http://www.w3.org/2000/svg">
<path d="M70.5706 35.0752L63.5895 42.0761C63.5025 41.967 63.4046 41.858 63.2959 41.7489L54.2705 32.6979C53.7703 32.1963 52.9656 32.1963 52.4654 32.6979C51.9652 33.1996 51.9652 34.0065 52.4654 34.5081L61.4908 43.5591C62.2629 44.3334 62.2629 45.5983 61.4908 46.3835C60.7188 47.1577 59.4574 47.1577 58.6744 46.3835L53.6615 41.3564C53.1613 40.8547 52.3567 40.8547 51.8565 41.3564C51.3563 41.858 51.3563 42.6649 51.8565 43.1666L56.8694 48.1937C57.25 48.5753 57.4566 49.0661 57.4566 49.6004C57.4566 50.1347 57.25 50.6364 56.8694 51.0071C56.4888 51.3888 55.9994 51.596 55.4666 51.596C54.9338 51.596 54.4336 51.3888 54.0639 51.0071L49.051 45.9909C48.5508 45.4893 47.7461 45.4893 47.2459 45.9909C46.7457 46.4925 46.7457 47.2995 47.2459 47.8011L52.2588 52.8282C53.0308 53.6025 53.0308 54.8674 52.2588 55.6526C51.8782 56.0342 51.3889 56.2414 50.8561 56.2414C50.3232 56.2414 49.823 56.0342 49.4533 55.6526L44.4404 50.6255C43.9402 50.1238 43.1355 50.1238 42.6353 50.6255C42.1351 51.1271 42.1351 51.934 42.6353 52.4356L47.6482 57.4628C48.4203 58.237 48.4203 59.502 47.6482 60.2871C47.2676 60.6688 46.7783 60.876 46.2455 60.876C45.7127 60.876 45.2125 60.6688 44.8427 60.2871L41.5914 57.0266C42.6245 55.2927 42.407 53.0136 40.9172 51.5306L40.8302 51.4433C39.8407 50.451 38.5032 50.0257 37.2092 50.1456C37.1331 49.0552 36.6764 48.0519 35.9043 47.2668C35.3063 46.667 34.5777 46.2744 33.8057 46.0781C34.0014 45.5656 34.1101 45.0204 34.1101 44.4533C34.1101 43.2538 33.6425 42.1197 32.7944 41.2691C31.9462 40.4185 30.8153 39.9496 29.6192 39.9496C28.9341 39.9496 28.2817 40.1023 27.6836 40.3858C27.477 39.6661 27.1073 38.99 26.5418 38.4339C24.7911 36.6782 21.9422 36.6782 20.1914 38.4339L19.6695 38.9573L19.2889 38.5756C18.6691 37.9541 18.332 37.1362 18.332 36.2529V32.916C18.332 32.578 18.2015 32.2508 17.9623 32.0109L12.5144 26.5476L14.0476 25.01C14.5478 24.5084 14.5478 23.7015 14.0476 23.1999C13.5474 22.6982 12.7428 22.6982 12.2426 23.1999L10.1874 25.2609C9.79592 25.6534 9.16523 25.6534 8.78464 25.2609L2.18414 18.6962C1.68394 18.1945 0.879261 18.1945 0.379058 18.6962C-0.121144 19.1978 -0.121144 20.0047 0.379058 20.5064L6.94694 27.0929C7.64287 27.7908 8.54541 28.1288 9.45883 28.1288C9.75243 28.1288 10.0351 28.0852 10.3179 28.0198L15.7549 33.4722V36.2856C15.7549 37.845 16.3638 39.3063 17.4621 40.4185L17.8427 40.8002L17.4186 41.2255C16.5704 42.0761 16.1028 43.2102 16.1028 44.4097C16.1028 45.6092 16.5704 46.7433 17.4186 47.5939C18.2885 48.4663 19.4411 48.9134 20.5938 48.9134C20.6155 48.9134 20.6264 48.9134 20.6481 48.9134C20.6481 48.9352 20.6481 48.9461 20.6481 48.9679C20.6481 50.1674 21.1157 51.3016 21.9639 52.1521C22.8121 53.0027 23.943 53.4716 25.1391 53.4716C25.1608 53.4716 25.1717 53.4716 25.1935 53.4716C25.1826 54.6384 25.6176 55.8161 26.5092 56.7103C27.3791 57.5827 28.5318 58.0298 29.6844 58.0298C29.7062 58.0298 29.717 58.0298 29.7388 58.0298C29.7279 59.1966 30.1629 60.3744 31.0545 61.2685L31.1307 61.3449C31.9788 62.1955 33.1097 62.6644 34.3059 62.6644C35.502 62.6644 36.6329 62.1955 37.4811 61.3449L39.8733 58.9458L43.0268 62.1082C43.8858 62.9697 45.0276 63.4386 46.2346 63.4386C47.4525 63.4386 48.5834 62.9697 49.4424 62.1082C50.345 61.2031 50.7908 60.0036 50.7691 58.8041C50.7908 58.8041 50.8234 58.8041 50.8452 58.8041C52.0631 58.8041 53.194 58.3352 54.053 57.4737C54.9555 56.5686 55.4014 55.369 55.3796 54.1695C55.4014 54.1695 55.434 54.1695 55.4557 54.1695C56.6193 54.1695 57.7828 53.7224 58.6636 52.8391C59.5226 51.9776 59.9902 50.8326 59.9902 49.6222C59.9902 49.6004 59.9902 49.5677 59.9902 49.5459C60.0119 49.5459 60.0446 49.5459 60.0663 49.5459C61.2298 49.5459 62.3933 49.0988 63.2741 48.2155C64.2419 47.245 64.6769 45.9582 64.5899 44.6932L72.3539 36.9072C72.8541 36.4056 72.8541 35.5986 72.3539 35.097C71.8754 34.5736 71.0708 34.5736 70.5706 35.0752ZM19.2345 45.7837C18.8648 45.413 18.6691 44.9331 18.6691 44.4097C18.6691 43.8863 18.8757 43.4065 19.2345 43.0357L21.9965 40.2659C22.3771 39.8842 22.8664 39.6988 23.3666 39.6988C23.8668 39.6988 24.3562 39.8842 24.7368 40.2659C25.4871 41.0183 25.4871 42.2506 24.7368 43.0139L21.9748 45.7837C21.2136 46.5361 19.9848 46.5361 19.2345 45.7837ZM25.1391 50.8981C24.6171 50.8981 24.1387 50.6909 23.769 50.331C23.3993 49.9603 23.2035 49.4804 23.2035 48.957C23.2035 48.4336 23.4101 47.9538 23.769 47.583L26.531 44.8132L28.2491 43.0902C28.6188 42.7195 29.0972 42.5232 29.6192 42.5232C30.1411 42.5232 30.6196 42.7304 30.9893 43.0902C31.359 43.461 31.5547 43.9408 31.5547 44.4642C31.5547 44.9877 31.3481 45.4675 30.9893 45.8382L26.5092 50.331C26.1395 50.7018 25.6502 50.8981 25.1391 50.8981ZM28.3143 54.8892C27.564 54.1368 27.564 52.9046 28.3143 52.1412L31.359 49.0879C31.7396 48.7062 32.2289 48.5208 32.7291 48.5208C33.2293 48.5208 33.7187 48.7062 34.0993 49.0879C34.469 49.4586 34.6647 49.9384 34.6647 50.4619C34.6647 50.9744 34.469 51.4651 34.0993 51.8359L31.0545 54.8892C30.2934 55.6417 29.0646 55.6417 28.3143 54.8892ZM35.6651 59.5238C35.2954 59.8945 34.8169 60.0908 34.295 60.0908C33.773 60.0908 33.2946 59.8836 32.9249 59.5238L32.8488 59.4474C32.0984 58.695 32.0984 57.4628 32.8488 56.6994L35.8935 53.6461L36.2741 53.2644C36.6546 52.8827 37.144 52.6974 37.6442 52.6974C38.1444 52.6974 38.6337 52.8827 39.0143 53.2644L39.0904 53.3408C39.8407 54.0932 39.8407 55.3254 39.0904 56.0888L35.6651 59.5238Z" fill="#553D67"/>
<path d="M86.6312 24.094C86.131 23.5924 85.3263 23.5924 84.8261 24.094L80.0416 28.8922C79.9763 28.9576 79.8676 28.9576 79.8024 28.8922L62.8825 12.6876C62.8498 12.6549 62.8281 12.6112 62.8281 12.5676C62.8281 12.524 62.8498 12.4804 62.8825 12.4477L72.9083 2.3716C73.4085 1.86998 73.4085 1.06302 72.9083 0.561398C72.4081 0.059775 71.6034 0.059775 71.1032 0.561398L61.0665 10.6266C60.5445 11.15 60.2618 11.8479 60.2727 12.5894C60.2836 13.1892 60.4793 13.7563 60.8381 14.2143L56.2493 18.7289L51.9215 16.308C51.356 15.9917 50.7145 15.8282 50.0729 15.8282H37.7853L36.8501 14.8904C35.9802 14.018 34.9581 13.3528 33.8054 12.9166L30.4019 11.6189L28.8252 10.0377C29.6407 8.6746 29.4667 6.8753 28.2923 5.69758L23.1707 0.561398C22.6705 0.059775 21.8658 0.059775 21.3656 0.561398C20.8654 1.06302 20.8654 1.86998 21.3656 2.3716L26.4872 7.50778C26.8787 7.90036 26.8787 8.53284 26.4872 8.91451L16.07 19.3613C15.5698 19.863 15.5698 20.6699 16.07 21.1715C16.3201 21.4224 16.6463 21.5423 16.9725 21.5423C17.2987 21.5423 17.625 21.4224 17.8751 21.1715L27.0962 11.9242L28.7817 13.6145C28.9121 13.7454 29.0644 13.8435 29.2275 13.9089L32.8811 15.3047C33.6749 15.6101 34.3709 16.0572 34.9798 16.6569C34.9037 16.7224 34.8276 16.7878 34.7515 16.8641L29.8908 21.7386C28.923 22.7091 28.4011 23.985 28.4011 25.359C28.4011 26.733 28.9339 28.0089 29.8908 28.9794C30.8912 29.9827 32.1852 30.4843 33.501 30.4843C34.6427 30.4843 35.7954 30.1026 36.7414 29.3175L40.4168 26.2859H44.2445L48.6158 30.6697C48.8659 30.9205 49.1921 31.0404 49.5183 31.0404C49.8446 31.0404 50.1708 30.9205 50.4209 30.6697C50.9211 30.168 50.9211 29.3611 50.4209 28.8595L47.2565 25.6862C47.387 25.4899 47.4523 25.25 47.4523 24.9991C47.4523 24.2903 46.876 23.7233 46.18 23.7233H39.9492C39.6556 23.7233 39.362 23.8214 39.1337 24.0177L35.1103 27.3437C34.0882 28.1834 32.6202 28.107 31.685 27.1801C31.2066 26.7003 30.9347 26.0569 30.9347 25.3699C30.9347 24.6829 31.1957 24.0504 31.685 23.5597L36.5457 18.6852C36.7305 18.4999 36.9698 18.4017 37.2307 18.4017H50.0512C50.2686 18.4017 50.4752 18.4562 50.6601 18.5653L55.4447 21.237C56.1515 21.6296 57.054 21.5096 57.6412 20.9425L62.6432 16.0245L76.4097 29.2193L74.4089 31.2258C73.9087 31.7274 73.9087 32.5344 74.4089 33.036C74.659 33.2868 74.9852 33.4068 75.3114 33.4068C75.6376 33.4068 75.9639 33.2868 76.214 33.036L78.28 30.9641C78.7585 31.324 79.3348 31.4984 79.9002 31.4984C80.5962 31.4984 81.303 31.2367 81.8249 30.7024L86.6095 25.9043C87.1205 25.4026 87.1206 24.5848 86.6312 24.094Z" fill="#553D67"/>
</svg>
